<?xml version="1.0" encoding="UTF-8" standalone="no"?>
<!-- Created with Inkscape (http://www.inkscape.org/) -->

<svg
   width="500"
   height="110"
   viewBox="0 0 132.29166 29.104167"
   version="1.1"
   id="svg1"
   inkscape:version="1.3.2 (091e20e, 2023-11-25, custom)"
   sodipodi:docname="logo-light.svg"
   xmlns:inkscape="http://www.inkscape.org/namespaces/inkscape"
   xmlns:sodipodi="http://sodipodi.sourceforge.net/DTD/sodipodi-0.dtd"
   xmlns="http://www.w3.org/2000/svg"
   xmlns:svg="http://www.w3.org/2000/svg">
  <sodipodi:namedview
     id="namedview1"
     pagecolor="#ffffff"
     bordercolor="#000000"
     borderopacity="0.25"
     inkscape:showpageshadow="2"
     inkscape:pageopacity="0.0"
     inkscape:pagecheckerboard="0"
     inkscape:deskcolor="#d1d1d1"
     inkscape:document-units="mm"
     inkscape:zoom="0.75465398"
     inkscape:cx="194.1287"
     inkscape:cy="-100.70841"
     inkscape:window-width="743"
     inkscape:window-height="828"
     inkscape:window-x="-7"
     inkscape:window-y="0"
     inkscape:window-maximized="0"
     inkscape:current-layer="layer1" />
  <defs
     id="defs1">
    <inkscape:path-effect
       effect="perspective-envelope"
       up_left_point="37.849206,81.305893"
       up_right_point="172.0746,81.305893"
       down_left_point="37.849206,215.53129"
       down_right_point="172.0746,215.53129"
       id="path-effect74"
       is_visible="true"
       lpeversion="1"
       deform_type="perspective"
       horizontal_mirror="false"
       vertical_mirror="true"
       overflow_perspective="false" />
    <inkscape:path-effect
       effect="envelope"
       id="path-effect73"
       is_visible="true"
       lpeversion="1"
       yy="true"
       xx="true"
       bendpath1="M 37.887093,81.38728 H 172.11249"
       bendpath2="m 172.11249,81.38728 v 134.2254"
       bendpath3="M 37.887093,215.61268 H 172.11249"
       bendpath4="m 37.887093,81.38728 v 134.2254" />
    <inkscape:path-effect
       effect="perspective-envelope"
       up_left_point="37.887093,81.38728"
       up_right_point="172.11249,81.38728"
       down_left_point="30.016798,153.32621"
       down_right_point="179.98279,153.32621"
       id="path-effect72"
       is_visible="true"
       lpeversion="1"
       deform_type="perspective"
       horizontal_mirror="false"
       vertical_mirror="true"
       overflow_perspective="false" />
    <inkscape:path-effect
       effect="perspective-envelope"
       up_left_point="37.887093,81.38728"
       up_right_point="172.11249,81.38728"
       down_left_point="30.016798,153.32621"
       down_right_point="179.98279,153.32621"
       id="path-effect69"
       is_visible="true"
       lpeversion="1"
       deform_type="perspective"
       horizontal_mirror="false"
       vertical_mirror="true"
       overflow_perspective="false" />
  </defs>
  <g
     inkscape:label="Layer 1"
     inkscape:groupmode="layer"
     id="layer1">
    <g
       id="g37"
       style="fill:#ffffff">
      <path
         id="path35"
         style="font-weight:900;font-size:25.4px;font-family:'Inter Display';-inkscape-font-specification:'Inter Display Heavy';stroke-width:0.264583;fill:#ffffff"
         d="M 109.29359 5.3123372 L 109.29359 23.791829 L 118.00003 23.791829 C 119.33948 23.791829 120.48464 23.568585 121.43548 23.122103 C 122.38633 22.667351 123.11393 22.047233 123.61829 21.261751 C 124.12266 20.468003 124.37484 19.566762 124.37484 18.55804 C 124.37484 17.689878 124.1888 16.925063 123.81673 16.263607 C 123.45293 15.602149 122.9527 15.08125 122.31605 14.700911 C 121.68766 14.312308 120.97659 14.105601 120.18285 14.080794 L 120.18285 14.05599 C 121.25771 13.849284 122.12176 13.377994 122.77493 12.642122 C 123.42813 11.906252 123.75472 11.000877 123.75472 9.9260091 C 123.75472 8.5782905 123.20488 7.4744775 122.10521 6.6145833 C 121.0138 5.7464211 119.4139 5.3123372 117.3055 5.3123372 L 109.29359 5.3123372 z M 114.30413 9.1818685 L 116.72259 9.1818685 C 117.2931 9.1818685 117.74785 9.3389654 118.08685 9.6531576 C 118.42584 9.9673492 118.59535 10.384897 118.59535 10.905794 C 118.59535 11.426692 118.42584 11.844239 118.08685 12.158431 C 117.74785 12.472623 117.2931 12.62972 116.72259 12.62972 L 114.30413 12.62972 L 114.30413 9.1818685 z M 114.30413 16.276009 L 117.03265 16.276009 C 117.66104 16.276009 118.16127 16.441374 118.53333 16.772103 C 118.90541 17.102831 119.09144 17.545183 119.09144 18.099154 C 119.09144 18.653124 118.90541 19.095475 118.53333 19.426204 C 118.16127 19.756933 117.66104 19.922298 117.03265 19.922298 L 114.30413 19.922298 L 114.30413 16.276009 z " />
      <path
         id="path33"
         style="font-weight:900;font-size:25.4px;font-family:'Inter Display';-inkscape-font-specification:'Inter Display Heavy';stroke-width:0.264583;fill:#ffffff"
         d="M 91.235775 5.3123372 L 91.235775 23.791829 L 98.453939 23.791829 C 100.35563 23.791829 102.00514 23.41149 103.40247 22.650814 C 104.79981 21.890138 105.88295 20.8194 106.65189 19.438607 C 107.42083 18.057814 107.80531 16.433104 107.80531 14.564486 C 107.80531 12.6876 107.4167 11.058755 106.63949 9.6779622 C 105.86227 8.2889012 104.76673 7.2140292 103.35286 6.4533529 C 101.939 5.6926766 100.28122 5.3123372 98.379525 5.3123372 L 91.235775 5.3123372 z M 96.39515 9.5787435 L 98.057064 9.5787435 C 99.61149 9.5787435 100.75664 9.9880219 101.49251 10.806576 C 102.22839 11.616861 102.59632 12.869501 102.59632 14.564486 C 102.59632 16.242935 102.24079 17.49144 101.52972 18.309993 C 100.81865 19.120279 99.710706 19.525423 98.205892 19.525423 L 96.39515 19.525423 L 96.39515 9.5787435 z " />
      <path
         style="font-weight:900;font-size:25.4px;font-family:'Inter Display';-inkscape-font-specification:'Inter Display Heavy';stroke-width:0.264583;fill:#ffffff"
         d="M 75.18714,23.79183 V 5.3123382 h 14.312305 v 4.3656249 h -9.15293 v 2.7781249 h 8.445996 v 4.216797 h -8.445996 v 2.75332 h 9.15293 v 4.365625 z"
         id="path32" />
      <path
         style="font-weight:900;font-size:25.4px;font-family:'Inter Display';-inkscape-font-specification:'Inter Display Heavy';stroke-width:0.264583;fill:#ffffff"
         d="M 73.202766,5.3123382 V 23.79183 H 68.043391 V 5.3123382 Z"
         id="path31" />
      <path
         style="font-weight:900;font-size:25.4px;font-family:'Inter Display';-inkscape-font-specification:'Inter Display Heavy';stroke-width:0.264583;fill:#ffffff"
         d="M 54.202376,23.79183 48.001204,5.3123382 h 5.680274 l 2.145605,7.1685548 q 0.483692,1.612304 0.930176,3.224609 0.458887,1.612305 0.892969,3.237012 0.421679,-1.624707 0.855761,-3.237012 0.434083,-1.612305 0.892969,-3.224609 l 2.046387,-7.1685548 h 5.605859 L 61.04847,23.79183 Z"
         id="path30" />
      <path
         style="font-weight:900;font-size:25.4px;font-family:'Inter Display';-inkscape-font-specification:'Inter Display Heavy';stroke-width:0.264583;fill:#ffffff"
         d="M 7.916831,23.79183 V 5.3123382 h 7.714258 l 1.661914,5.7794918 q 0.272851,0.942578 0.657324,2.406055 0.384473,1.463476 0.731738,2.889746 0.347266,-1.42627 0.731738,-2.889746 0.384473,-1.463477 0.644922,-2.406055 l 1.63711,-5.7794918 h 7.72666 V 23.79183 h -5.060156 v -7.14375 q 0,-0.620117 0.0248,-1.5875 0.03721,-0.979785 0.07441,-2.133203 0.03721,-1.16582 0.06201,-2.344043 -0.434082,1.748731 -0.880566,3.423047 -0.434082,1.674316 -0.731739,2.641699 l -2.145605,7.14375 h -4.167188 l -2.182812,-7.14375 q -0.285254,-0.942578 -0.719336,-2.54248 -0.434082,-1.599903 -0.880566,-3.299024 0.04961,1.711524 0.09922,3.336231 0.06201,1.612304 0.06201,2.505273 v 7.14375 z"
         id="text1" />
    </g>
    <g
       id="g38">
      <ellipse
         style="fill:#ffffff;stroke-width:0.264583"
         id="path37"
         cx="39.867035"
         cy="14.552084"
         rx="9.2397432"
         ry="9.2397461" />
      <g
         id="g28"
         transform="translate(-6.5696993,23.791831)">
        <circle
           style="fill:#000000;fill-opacity:1;stroke-width:0.098658"
           id="circle69"
           r="6.536675"
           cy="-9.239747"
           cx="46.436741" />
        <path
           id="circle61"
           style="fill:#9ca3af;fill-opacity:1;stroke-width:0.139457"
           d="M 46.436732,-18.479493 A 9.2397484,9.2397484 0 0 0 37.196992,-9.239747 9.2397484,9.2397484 0 0 0 46.436732,0 a 9.2397484,9.2397484 0 0 0 9.239747,-9.239747 9.2397484,9.2397484 0 0 0 -9.239747,-9.239746 z m 0,0.907182 a 2.4134579,2.4134579 0 0 1 2.413468,2.413474 2.4134579,2.4134579 0 0 1 -2.413468,2.413393 2.4134579,2.4134579 0 0 1 -2.4134,-2.413393 2.4134579,2.4134579 0 0 1 2.4134,-2.413474 z m -5.240934,2.962287 a 2.4134579,2.4134579 0 0 1 1.321599,0.320583 2.4134579,2.4134579 0 0 1 0.883344,3.29688 2.4134579,2.4134579 0 0 1 -3.296814,0.883344 2.4134579,2.4134579 0 0 1 -0.883413,-3.296812 2.4134579,2.4134579 0 0 1 1.975284,-1.203995 z m 10.481944,0 a 2.4134579,2.4134579 0 0 1 1.975212,1.203995 2.4134579,2.4134579 0 0 1 -0.883345,3.296812 2.4134579,2.4134579 0 0 1 -3.296879,-0.883344 2.4134579,2.4134579 0 0 1 0.883411,-3.29688 2.4134579,2.4134579 0 0 1 1.321601,-0.320583 z m -5.24101,2.540396 a 0.81965428,0.81965428 0 0 1 0.819665,0.819665 0.81965428,0.81965428 0 0 1 -0.819665,0.819664 0.81965428,0.81965428 0 0 1 -0.819597,-0.819664 0.81965428,0.81965428 0 0 1 0.819597,-0.819665 z m -1.779918,1.006062 a 0.81965428,0.81965428 0 0 1 0.448857,0.108857 0.81965428,0.81965428 0 0 1 0.300025,1.119689 0.81965428,0.81965428 0 0 1 -1.119695,0.300019 0.81965428,0.81965428 0 0 1 -0.300018,-1.119689 0.81965428,0.81965428 0 0 1 0.670831,-0.408876 z m 3.559837,0 a 0.81965428,0.81965428 0 0 1 0.670905,0.408876 0.81965428,0.81965428 0 0 1 -0.300025,1.119689 0.81965428,0.81965428 0 0 1 -1.119683,-0.300019 0.81965428,0.81965428 0 0 1 0.300019,-1.119689 0.81965428,0.81965428 0 0 1 0.448784,-0.108857 z m -3.481786,2.010217 a 0.81965428,0.81965428 0 0 1 0.670831,0.408875 0.81965428,0.81965428 0 0 1 -0.300025,1.119689 0.81965428,0.81965428 0 0 1 -1.119688,-0.300018 0.81965428,0.81965428 0 0 1 0.300018,-1.11969 0.81965428,0.81965428 0 0 1 0.448864,-0.108856 z m 3.403815,0 a 0.81965428,0.81965428 0 0 1 0.448851,0.108856 0.81965428,0.81965428 0 0 1 0.300025,1.11969 0.81965428,0.81965428 0 0 1 -1.119689,0.300018 0.81965428,0.81965428 0 0 1 -0.300019,-1.119689 0.81965428,0.81965428 0 0 1 0.670832,-0.408875 z m -6.713224,0.362414 a 2.4134579,2.4134579 0 0 1 1.975285,1.204003 2.4134579,2.4134579 0 0 1 -0.883344,3.29688 2.4134579,2.4134579 0 0 1 -3.296883,-0.883413 2.4134579,2.4134579 0 0 1 0.883413,-3.296811 2.4134579,2.4134579 0 0 1 1.321529,-0.320659 z m 10.022553,0 a 2.4134579,2.4134579 0 0 1 1.3216,0.320659 2.4134579,2.4134579 0 0 1 0.883345,3.296811 2.4134579,2.4134579 0 0 1 -3.296813,0.883413 2.4134579,2.4134579 0 0 1 -0.883411,-3.29688 2.4134579,2.4134579 0 0 1 1.975279,-1.204003 z m -5.011277,0.641807 a 0.81965428,0.81965428 0 0 1 0.819665,0.819597 0.81965428,0.81965428 0 0 1 -0.819665,0.819665 0.81965428,0.81965428 0 0 1 -0.819597,-0.819665 0.81965428,0.81965428 0 0 1 0.819597,-0.819597 z m 0,2.315078 a 2.4134579,2.4134579 0 0 1 2.413468,2.413394 2.4134579,2.4134579 0 0 1 -2.413468,2.413474 2.4134579,2.4134579 0 0 1 -2.4134,-2.413474 2.4134579,2.4134579 0 0 1 2.4134,-2.413394 z" />
        <circle
           style="fill:#808080;stroke-width:0.0132342"
           id="circle62"
           r="0.87683779"
           cy="-9.239747"
           cx="46.436741" />
      </g>
    </g>
  </g>
</svg>
